<svg width="326" height="96" viewBox="0 0 326 96" fill="none" xmlns="http://www.w3.org/2000/svg">
<path d="M21.375 47.6094C20.4688 48.3906 19.5156 49.25 18.5156 50.1875C17.5469 51.0938 16.5 51.9375 15.375 52.7188C14.2812 53.5 13.1406 54.1562 11.9531 54.6875C10.7656 55.1875 9.51562 55.4375 8.20312 55.4375C7.51562 55.4375 6.76562 55.3594 5.95312 55.2031C5.14062 55.0156 4.375 54.7188 3.65625 54.3125C2.96875 53.9062 2.35938 53.4062 1.82812 52.8125C1.32812 52.1875 1.0625 51.4531 1.03125 50.6094C0.90625 49.4219 1.03125 47.9688 1.40625 46.25C1.8125 44.5 2.40625 42.6719 3.1875 40.7656C3.96875 38.8281 4.89062 36.9219 5.95312 35.0469C7.04688 33.1406 8.23438 31.4219 9.51562 29.8906C10.7969 28.3281 12.1406 27.0781 13.5469 26.1406C14.9844 25.2031 16.4375 24.7344 17.9062 24.7344C18.125 24.7344 18.3594 24.7656 18.6094 24.8281C18.8906 24.8594 19.1406 24.9219 19.3594 25.0156C19.6094 25.1094 19.8125 25.2656 19.9688 25.4844C20.125 25.6719 20.2031 25.9375 20.2031 26.2812C20.2031 26.4375 19.8438 26.6406 19.125 26.8906C18.4375 27.1406 17.6406 27.4219 16.7344 27.7344C15.8281 28.0156 14.9531 28.3281 14.1094 28.6719C13.2656 28.9844 12.7031 29.2969 12.4219 29.6094C11.2969 31.0469 10.2188 32.5156 9.1875 34.0156C8.1875 35.5156 7.28125 37.0625 6.46875 38.6562C5.6875 40.25 5.01562 41.8906 4.45312 43.5781C3.92188 45.2656 3.5625 47 3.375 48.7812C3.375 49.6562 3.54688 50.3438 3.89062 50.8438C4.23438 51.3125 4.67188 51.6719 5.20312 51.9219C5.76562 52.1406 6.40625 52.2812 7.125 52.3438C7.84375 52.375 8.5625 52.3906 9.28125 52.3906C10.5312 52.2656 11.7812 51.8438 13.0312 51.125C14.2812 50.375 15.4531 49.4531 16.5469 48.3594C17.6719 47.2656 18.6875 46.0312 19.5938 44.6562C20.5 43.25 21.2656 41.8281 21.8906 40.3906H14.5781C14.5781 40.0156 14.7969 39.6719 15.2344 39.3594C15.7031 39.0469 16.2812 38.7656 16.9688 38.5156C17.6875 38.2344 18.4844 37.9844 19.3594 37.7656C20.2344 37.5469 21.0938 37.3594 21.9375 37.2031C22.7812 37.0469 23.5625 36.9375 24.2812 36.875C25 36.8125 25.5625 36.7812 25.9688 36.7812H26.4844C26.7031 36.7812 26.9062 36.8125 27.0938 36.875C27.2812 36.9375 27.4062 37.0625 27.4688 37.25C27.5625 37.4062 27.5312 37.6562 27.375 38C27.3438 38.0625 27.2344 38.1562 27.0469 38.2812C26.8906 38.4062 26.7031 38.5312 26.4844 38.6562C26.2969 38.7812 26.1094 38.9062 25.9219 39.0312C25.7344 39.125 25.6094 39.1875 25.5469 39.2188C24.8906 40.5312 24.4219 42.0781 24.1406 43.8594C23.8594 45.6406 23.7031 47.4844 23.6719 49.3906C23.6406 51.2969 23.7031 53.2031 23.8594 55.1094C24.0156 56.9844 24.2031 58.6719 24.4219 60.1719L22.5938 61.3906C22.2188 61.0156 21.9062 60.4844 21.6562 59.7969C21.4375 59.1094 21.2812 58.3438 21.1875 57.5C21.0938 56.6562 21.0469 55.7656 21.0469 54.8281C21.0469 53.8906 21.0625 52.9844 21.0938 52.1094C21.1562 51.2031 21.2031 50.3594 21.2344 49.5781C21.2969 48.7969 21.3438 48.1406 21.375 47.6094ZM30.9844 45.875C30.8281 45.9062 30.5938 45.9531 30.2812 46.0156C29.9688 46.0781 29.6406 46.0938 29.2969 46.0625C28.9531 46.0312 28.6562 45.9375 28.4062 45.7812C28.125 45.625 27.9844 45.3594 27.9844 44.9844C27.9844 44.7656 28.0312 44.6094 28.125 44.5156C28.2188 44.4219 28.375 44.2812 28.5938 44.0938C29.2812 43.5312 29.8594 42.8125 30.3281 41.9375C30.8281 41.0312 31.2812 40.0781 31.6875 39.0781C32.0938 38.0469 32.5156 37.0312 32.9531 36.0312C33.4219 35 33.9531 34.0781 34.5469 33.2656C35.1406 32.4531 35.875 31.7969 36.75 31.2969C37.625 30.7969 38.7031 30.5625 39.9844 30.5938C40.5156 30.5938 41.1094 30.7188 41.7656 30.9688C42.4219 31.2188 43.0312 31.5625 43.5938 32C44.1562 32.4062 44.625 32.9062 45 33.5C45.375 34.0938 45.5625 34.75 45.5625 35.4688C45.7188 35.7188 45.5625 36.0781 45.0938 36.5469C44.6562 37.0156 44.0469 37.5312 43.2656 38.0938C42.4844 38.625 41.5938 39.1875 40.5938 39.7812C39.625 40.3438 38.6875 40.875 37.7812 41.375C36.875 41.875 36.0781 42.3125 35.3906 42.6875C34.7031 43.0625 34.25 43.3438 34.0312 43.5312C33.875 43.8438 33.75 44.2031 33.6562 44.6094C33.5625 45.0156 33.4844 45.4062 33.4219 45.7812C33.3906 46.125 33.3594 46.4531 33.3281 46.7656C33.3281 47.0469 33.3281 47.2656 33.3281 47.4219C33.3281 48.0156 33.2969 48.6719 33.2344 49.3906C33.2031 50.1094 33.2344 50.7969 33.3281 51.4531C33.4531 52.0781 33.7188 52.6094 34.125 53.0469C34.5312 53.4531 35.2188 53.6562 36.1875 53.6562C37.2188 53.6562 38.1875 53.4062 39.0938 52.9062C40 52.375 40.8438 51.7344 41.625 50.9844C42.4062 50.2344 43.1094 49.4219 43.7344 48.5469C44.3906 47.6719 44.9688 46.8594 45.4688 46.1094C46 45.3281 46.4688 44.6875 46.875 44.1875C47.2812 43.6875 47.625 43.4375 47.9062 43.4375C48.2188 43.4375 48.5469 43.5 48.8906 43.625C49.2656 43.7188 49.4531 43.9688 49.4531 44.375C49.4531 44.9375 49.2188 45.6094 48.75 46.3906C48.3125 47.1719 47.7188 48 46.9688 48.875C46.25 49.75 45.4062 50.625 44.4375 51.5C43.5 52.3438 42.5469 53.1094 41.5781 53.7969C40.6094 54.4531 39.6562 55 38.7188 55.4375C37.7812 55.8438 36.9531 56.0469 36.2344 56.0469C34.8281 56.0469 33.7656 55.7031 33.0469 55.0156C32.3281 54.3281 31.8125 53.4688 31.5 52.4375C31.2188 51.4062 31.0625 50.3125 31.0312 49.1562C31.0312 47.9688 31.0156 46.875 30.9844 45.875ZM39.6094 33.2188C39.0781 33.2188 38.5156 33.4844 37.9219 34.0156C37.3281 34.5156 36.7656 35.1406 36.2344 35.8906C35.7344 36.6094 35.3125 37.3594 34.9688 38.1406C34.6562 38.8906 34.5 39.5156 34.5 40.0156C34.9688 40.0156 35.6406 39.8438 36.5156 39.5C37.4219 39.125 38.3125 38.6719 39.1875 38.1406C40.0625 37.6094 40.8281 37.0469 41.4844 36.4531C42.1406 35.8594 42.4688 35.2969 42.4688 34.7656C42.4688 34.4844 42.3594 34.25 42.1406 34.0625C41.9219 33.875 41.6562 33.7188 41.3438 33.5938C41.0625 33.4688 40.7656 33.375 40.4531 33.3125C40.1406 33.25 39.8594 33.2188 39.6094 33.2188ZM53.0625 35.9844C52.75 36.1406 52.4531 36.3125 52.1719 36.5C51.9219 36.6562 51.6719 36.8125 51.4219 36.9688C51.1719 37.0938 50.9219 37.1875 50.6719 37.25C50.4219 37.3125 50.1562 37.3125 49.875 37.25C49.6875 37.25 49.5312 37.1406 49.4062 36.9219C49.2812 36.6719 49.1875 36.4062 49.125 36.125C49.0312 35.8125 48.9688 35.5156 48.9375 35.2344C48.9062 34.9219 48.9062 34.6875 48.9375 34.5312L53.4375 31.9531L53.7188 19.9531C53.7812 19.5469 54.0312 19.3906 54.4688 19.4844C54.9062 19.5469 55.3594 19.6406 55.8281 19.7656C55.8906 19.7656 55.9844 19.7969 56.1094 19.8594C56.2656 19.8906 56.375 19.9219 56.4375 19.9531C56.375 20.7969 56.2969 21.7188 56.2031 22.7188C56.1406 23.6875 56.0781 24.6719 56.0156 25.6719C55.9531 26.6406 55.9062 27.5938 55.875 28.5312C55.875 29.4688 55.9219 30.3125 56.0156 31.0625L63.0469 29.0938C63.1719 29.0625 63.2656 29.1562 63.3281 29.375C63.4219 29.5625 63.5 29.7969 63.5625 30.0781C63.6562 30.3594 63.7188 30.6406 63.75 30.9219C63.7812 31.2031 63.7969 31.3438 63.7969 31.3438L55.8281 34.7188C55.8281 35 55.8438 35.6719 55.875 36.7344C55.9375 37.7969 56 39.0625 56.0625 40.5312C56.125 41.9688 56.1875 43.5312 56.25 45.2188C56.3125 46.875 56.375 48.4219 56.4375 49.8594C56.5 51.2969 56.5469 52.5625 56.5781 53.6562C56.6094 54.7188 56.625 55.3906 56.625 55.6719C56.5625 56.6094 56.2812 57.0781 55.7812 57.0781C55.3125 57.0781 54.7969 56.8438 54.2344 56.375L53.0625 35.9844ZM88.1719 55.8594C88.0781 54.9844 88 53.7969 87.9375 52.2969C87.875 50.7969 87.8125 49.1719 87.75 47.4219C87.6875 45.6406 87.6094 43.7969 87.5156 41.8906C87.4531 39.9844 87.375 38.1719 87.2812 36.4531C87.1875 34.7344 87.0625 33.1719 86.9062 31.7656C86.7812 30.3594 86.6406 29.2344 86.4844 28.3906C86.4844 27.7656 86.625 27.4062 86.9062 27.3125C87.1875 27.1875 87.5469 27.125 87.9844 27.125C88.0469 27.125 88.1875 27.125 88.4062 27.125C88.625 27.125 88.7812 27.1406 88.875 27.1719C89.1562 28.1094 89.3281 29.3281 89.3906 30.8281C89.4844 32.2969 89.5469 33.9062 89.5781 35.6562C89.6406 37.4062 89.6875 39.2188 89.7188 41.0938C89.7812 42.9688 89.8906 44.75 90.0469 46.4375C90.4844 43.9688 90.8438 41.9219 91.125 40.2969C91.4375 38.6719 91.7188 37.375 91.9688 36.4062C92.25 35.4062 92.5 34.6719 92.7188 34.2031C92.9688 33.7031 93.2344 33.375 93.5156 33.2188C93.8281 33.0625 94.1562 33 94.5 33.0312C94.875 33.0312 95.3125 33.0312 95.8125 33.0312C96.375 33.0312 96.8281 33.25 97.1719 33.6875C97.5469 34.125 97.8281 34.6875 98.0156 35.375C98.2344 36.0625 98.3906 36.8125 98.4844 37.625C98.6094 38.4375 98.7188 39.2344 98.8125 40.0156C98.9062 40.7656 99 41.4531 99.0938 42.0781C99.2188 42.7031 99.4062 43.1406 99.6562 43.3906C100.438 41.0781 101.109 39.1875 101.672 37.7188C102.234 36.25 102.719 35.0938 103.125 34.25C103.531 33.375 103.891 32.75 104.203 32.375C104.516 32 104.797 31.7812 105.047 31.7188C105.297 31.625 105.516 31.6094 105.703 31.6719C105.922 31.7344 106.141 31.7656 106.359 31.7656C107.203 31.7656 107.844 32.2031 108.281 33.0781C108.781 34.4844 109.125 35.8281 109.312 37.1094C109.5 38.3594 109.609 39.5781 109.641 40.7656C109.672 41.9219 109.672 43.0312 109.641 44.0938C109.641 45.1562 109.672 46.1875 109.734 47.1875C109.828 48.1875 110 49.1719 110.25 50.1406C110.531 51.1094 111 52.0625 111.656 53C111.406 53.5 111.156 53.8438 110.906 54.0312C110.656 54.1875 110.312 54.2656 109.875 54.2656C109.5 54.2656 109.172 54.1406 108.891 53.8906C108.609 53.6094 108.375 53.2812 108.188 52.9062C108 52.5 107.844 52.0938 107.719 51.6875C107.625 51.2812 107.531 50.9219 107.438 50.6094C107.312 46.1406 107.109 42.7188 106.828 40.3438C106.578 37.9375 106.188 36.6719 105.656 36.5469C105.125 36.4219 104.438 37.4688 103.594 39.6875C102.781 41.875 101.766 45.3125 100.547 50C100.453 50.1562 100.312 50.25 100.125 50.2812C99.9375 50.3125 99.7344 50.3281 99.5156 50.3281C99.3281 50.3281 99.125 50.3281 98.9062 50.3281C98.7188 50.2969 98.5312 50.2969 98.3438 50.3281C97.5625 45.7344 96.9062 42.4375 96.375 40.4375C95.875 38.4062 95.3594 37.625 94.8281 38.0938C94.2969 38.5625 93.7031 40.25 93.0469 43.1562C92.3906 46.0312 91.5469 50.0781 90.5156 55.2969L88.1719 55.8594ZM126.141 55.8125L114.047 36.4531C114.016 36.4219 113.984 36.3125 113.953 36.125C113.922 35.9062 113.906 35.7344 113.906 35.6094C113.906 35.2031 113.969 34.8594 114.094 34.5781C114.25 34.2656 114.625 34.1094 115.219 34.1094C115.344 34.1094 115.562 34.1875 115.875 34.3438C116.188 34.4688 116.375 34.5938 116.438 34.7188C117.125 35.8125 117.828 37.0312 118.547 38.375C119.297 39.7188 120.062 41.0625 120.844 42.4062C121.656 43.75 122.5 45.0469 123.375 46.2969C124.25 47.5156 125.172 48.5625 126.141 49.4375L127.266 31.0625C127.297 31.0625 127.375 31.0625 127.5 31.0625C127.656 31.0312 127.766 31.0156 127.828 31.0156C128.109 31.0156 128.391 31.0625 128.672 31.1562C128.953 31.2188 129.156 31.4219 129.281 31.7656C129.312 32.8906 129.312 34.2812 129.281 35.9375C129.281 37.5938 129.25 39.2969 129.188 41.0469C129.156 42.7969 129.109 44.4844 129.047 46.1094C129.016 47.7031 128.984 48.9844 128.953 49.9531C128.922 50.5781 128.859 51.5156 128.766 52.7656C128.703 54.0156 128.609 55.4219 128.484 56.9844C128.391 58.5781 128.266 60.25 128.109 62C127.984 63.75 127.859 65.4062 127.734 66.9688C127.609 68.5312 127.5 69.9375 127.406 71.1875C127.312 72.4688 127.234 73.3906 127.172 73.9531H124.734L126.141 55.8125ZM153.141 33.4062V33.0312C153.141 32.7188 153.25 32.5 153.469 32.375C153.719 32.25 154 32.1875 154.312 32.1875C154.562 32.1875 154.797 32.2188 155.016 32.2812C155.234 32.3125 155.406 32.4844 155.531 32.7969C155.625 33.2656 155.719 33.9219 155.812 34.7656C155.906 35.5781 156.016 36.4844 156.141 37.4844C156.266 38.4844 156.391 39.5469 156.516 40.6719C156.672 41.7656 156.812 42.8125 156.938 43.8125C157.094 44.7812 157.25 45.6562 157.406 46.4375C157.562 47.2188 157.734 47.8125 157.922 48.2188C157.828 45.2188 157.922 42.625 158.203 40.4375C158.484 38.2188 159.016 36.4219 159.797 35.0469C160.609 33.6406 161.703 32.6719 163.078 32.1406C164.484 31.5781 166.234 31.4531 168.328 31.7656C169.297 31.7656 169.781 32.2812 169.781 33.3125C169.781 33.7188 169.516 34 168.984 34.1562C168.453 34.2812 167.859 34.375 167.203 34.4375C166.547 34.4688 165.906 34.5156 165.281 34.5781C164.656 34.6406 164.203 34.7969 163.922 35.0469C162.797 35.6719 162 36.6406 161.531 37.9531C161.094 39.2656 160.781 40.8125 160.594 42.5938C160.406 44.375 160.266 46.3281 160.172 48.4531C160.109 50.5469 159.906 52.7031 159.562 54.9219C159.562 55.2344 159.438 55.4688 159.188 55.625C158.938 55.7812 158.625 55.8594 158.25 55.8594C157.906 55.8594 157.562 55.7812 157.219 55.625C156.906 55.4688 156.656 55.2344 156.469 54.9219L153.141 33.4062ZM173.531 45.875C173.375 45.9062 173.141 45.9531 172.828 46.0156C172.516 46.0781 172.188 46.0938 171.844 46.0625C171.5 46.0312 171.203 45.9375 170.953 45.7812C170.672 45.625 170.531 45.3594 170.531 44.9844C170.531 44.7656 170.578 44.6094 170.672 44.5156C170.766 44.4219 170.922 44.2812 171.141 44.0938C171.828 43.5312 172.406 42.8125 172.875 41.9375C173.375 41.0312 173.828 40.0781 174.234 39.0781C174.641 38.0469 175.062 37.0312 175.5 36.0312C175.969 35 176.5 34.0781 177.094 33.2656C177.688 32.4531 178.422 31.7969 179.297 31.2969C180.172 30.7969 181.25 30.5625 182.531 30.5938C183.062 30.5938 183.656 30.7188 184.312 30.9688C184.969 31.2188 185.578 31.5625 186.141 32C186.703 32.4062 187.172 32.9062 187.547 33.5C187.922 34.0938 188.109 34.75 188.109 35.4688C188.266 35.7188 188.109 36.0781 187.641 36.5469C187.203 37.0156 186.594 37.5312 185.812 38.0938C185.031 38.625 184.141 39.1875 183.141 39.7812C182.172 40.3438 181.234 40.875 180.328 41.375C179.422 41.875 178.625 42.3125 177.938 42.6875C177.25 43.0625 176.797 43.3438 176.578 43.5312C176.422 43.8438 176.297 44.2031 176.203 44.6094C176.109 45.0156 176.031 45.4062 175.969 45.7812C175.938 46.125 175.906 46.4531 175.875 46.7656C175.875 47.0469 175.875 47.2656 175.875 47.4219C175.875 48.0156 175.844 48.6719 175.781 49.3906C175.75 50.1094 175.781 50.7969 175.875 51.4531C176 52.0781 176.266 52.6094 176.672 53.0469C177.078 53.4531 177.766 53.6562 178.734 53.6562C179.766 53.6562 180.734 53.4062 181.641 52.9062C182.547 52.375 183.391 51.7344 184.172 50.9844C184.953 50.2344 185.656 49.4219 186.281 48.5469C186.938 47.6719 187.516 46.8594 188.016 46.1094C188.547 45.3281 189.016 44.6875 189.422 44.1875C189.828 43.6875 190.172 43.4375 190.453 43.4375C190.766 43.4375 191.094 43.5 191.438 43.625C191.812 43.7188 192 43.9688 192 44.375C192 44.9375 191.766 45.6094 191.297 46.3906C190.859 47.1719 190.266 48 189.516 48.875C188.797 49.75 187.953 50.625 186.984 51.5C186.047 52.3438 185.094 53.1094 184.125 53.7969C183.156 54.4531 182.203 55 181.266 55.4375C180.328 55.8438 179.5 56.0469 178.781 56.0469C177.375 56.0469 176.312 55.7031 175.594 55.0156C174.875 54.3281 174.359 53.4688 174.047 52.4375C173.766 51.4062 173.609 50.3125 173.578 49.1562C173.578 47.9688 173.562 46.875 173.531 45.875ZM182.156 33.2188C181.625 33.2188 181.062 33.4844 180.469 34.0156C179.875 34.5156 179.312 35.1406 178.781 35.8906C178.281 36.6094 177.859 37.3594 177.516 38.1406C177.203 38.8906 177.047 39.5156 177.047 40.0156C177.516 40.0156 178.188 39.8438 179.062 39.5C179.969 39.125 180.859 38.6719 181.734 38.1406C182.609 37.6094 183.375 37.0469 184.031 36.4531C184.688 35.8594 185.016 35.2969 185.016 34.7656C185.016 34.4844 184.906 34.25 184.688 34.0625C184.469 33.875 184.203 33.7188 183.891 33.5938C183.609 33.4688 183.312 33.375 183 33.3125C182.688 33.25 182.406 33.2188 182.156 33.2188ZM198.047 55.2969C198.047 55.3281 198.375 55.1406 199.031 54.7344C199.719 54.3281 200.516 53.7969 201.422 53.1406C202.359 52.4531 203.312 51.7188 204.281 50.9375C205.25 50.125 206.047 49.3594 206.672 48.6406C207.297 47.9219 207.625 47.3125 207.656 46.8125C207.719 46.2812 207.297 45.9375 206.391 45.7812C205.266 45.625 204.312 45.6406 203.531 45.8281C202.781 46.0156 202.094 46.2344 201.469 46.4844C200.844 46.7344 200.25 46.9688 199.688 47.1875C199.156 47.4062 198.562 47.4844 197.906 47.4219C196.531 47.4219 195.578 47 195.047 46.1562C194.547 45.2812 194.297 44.1094 194.297 42.6406C194.297 41.1719 194.625 39.7812 195.281 38.4688C195.938 37.125 196.781 35.9688 197.812 35C198.844 34.0312 200.031 33.2656 201.375 32.7031C202.719 32.1094 204.094 31.8125 205.5 31.8125C206.062 31.8125 206.547 31.8594 206.953 31.9531C207.359 32.0469 207.562 32.4062 207.562 33.0312C207.562 33.4688 207.375 33.8906 207 34.2969C206.625 34.6719 206.203 34.8594 205.734 34.8594C205.703 34.8594 205.625 34.8438 205.5 34.8125C205.375 34.75 205.25 34.6719 205.125 34.5781C205 34.4844 204.875 34.4219 204.75 34.3906C204.625 34.3281 204.547 34.2969 204.516 34.2969C203.516 34.0156 202.547 34.1562 201.609 34.7188C200.672 35.2812 199.828 36.0469 199.078 37.0156C198.359 37.9531 197.781 38.9844 197.344 40.1094C196.906 41.2031 196.688 42.1875 196.688 43.0625C196.688 43.4062 196.75 43.6875 196.875 43.9062C197.031 44.0938 197.219 44.2344 197.438 44.3281C197.688 44.4219 197.953 44.4844 198.234 44.5156C198.547 44.5156 198.859 44.5156 199.172 44.5156C199.797 44.5156 200.422 44.4219 201.047 44.2344C201.703 44.0469 202.328 43.8281 202.922 43.5781C203.547 43.3281 204.172 43.1094 204.797 42.9219C205.453 42.7344 206.125 42.6406 206.812 42.6406C207.125 42.6406 207.469 42.7344 207.844 42.9219C208.219 43.0781 208.562 43.3281 208.875 43.6719C209.188 43.9844 209.453 44.3594 209.672 44.7969C209.891 45.2031 210.016 45.6562 210.047 46.1562C210.234 46.5938 210.172 47.1719 209.859 47.8906C209.578 48.6094 209.141 49.375 208.547 50.1875C207.953 51 207.234 51.8281 206.391 52.6719C205.547 53.4844 204.703 54.2344 203.859 54.9219C203.016 55.5781 202.188 56.1094 201.375 56.5156C200.562 56.9531 199.875 57.1562 199.312 57.125C198.688 57.125 198.312 56.9375 198.188 56.5625C198.094 56.1875 198.047 55.7656 198.047 55.2969ZM223.828 50.5625C223.703 50.9375 223.391 51.4531 222.891 52.1094C222.422 52.7344 221.859 53.375 221.203 54.0312C220.547 54.6562 219.859 55.2188 219.141 55.7188C218.453 56.1875 217.844 56.4219 217.312 56.4219C216.312 56.4219 215.484 55.9531 214.828 55.0156C214.203 54.0781 213.719 52.875 213.375 51.4062C213.031 49.9375 212.797 48.3125 212.672 46.5312C212.547 44.7188 212.469 42.9531 212.438 41.2344C212.406 39.5156 212.391 37.9531 212.391 36.5469C212.391 35.1406 212.344 34.0781 212.25 33.3594C212.375 33.0469 212.531 32.8594 212.719 32.7969C212.938 32.7344 213.188 32.7031 213.469 32.7031C213.719 32.7031 213.938 32.7344 214.125 32.7969C214.344 32.8594 214.531 33.0469 214.688 33.3594C214.688 33.7031 214.688 34.2812 214.688 35.0938C214.719 35.9062 214.766 36.8281 214.828 37.8594C214.891 38.8594 214.953 39.9219 215.016 41.0469C215.078 42.1406 215.125 43.1875 215.156 44.1875C215.219 45.1875 215.266 46.0938 215.297 46.9062C215.359 47.6875 215.406 48.2656 215.438 48.6406C215.469 48.8594 215.5 49.2188 215.531 49.7188C215.594 50.2188 215.672 50.75 215.766 51.3125C215.891 51.8438 216.031 52.3281 216.188 52.7656C216.375 53.2031 216.609 53.4375 216.891 53.4688C217.359 53.4688 217.828 53.2656 218.297 52.8594C218.797 52.4531 219.281 51.9375 219.75 51.3125C220.219 50.6875 220.656 50 221.062 49.25C221.469 48.5 221.828 47.7812 222.141 47.0938C222.484 46.375 222.734 45.7344 222.891 45.1719C223.078 44.6094 223.188 44.2031 223.219 43.9531C223.281 43.4219 223.344 42.6719 223.406 41.7031C223.469 40.7031 223.516 39.6406 223.547 38.5156C223.578 37.3906 223.594 36.3281 223.594 35.3281C223.625 34.3281 223.641 33.5625 223.641 33.0312L226.219 33.1719C226.25 35.7031 226.234 38 226.172 40.0625C226.109 42.0938 226.094 44.0156 226.125 45.8281C226.156 47.6094 226.297 49.3438 226.547 51.0312C226.797 52.7188 227.25 54.4688 227.906 56.2812C227.812 56.375 227.625 56.5 227.344 56.6562C227.062 56.8438 226.859 56.9375 226.734 56.9375C225.953 56.9375 225.422 56.6719 225.141 56.1406C224.891 55.6406 224.719 55.0469 224.625 54.3594C224.562 53.6406 224.5 52.9375 224.438 52.25C224.406 51.5312 224.203 50.9688 223.828 50.5625ZM232.406 55.8594C232.312 54.9844 232.234 53.7969 232.172 52.2969C232.109 50.7969 232.047 49.1719 231.984 47.4219C231.922 45.6406 231.844 43.7969 231.75 41.8906C231.688 39.9844 231.609 38.1719 231.516 36.4531C231.422 34.7344 231.297 33.1719 231.141 31.7656C231.016 30.3594 230.875 29.2344 230.719 28.3906C230.719 27.7656 230.859 27.4062 231.141 27.3125C231.422 27.1875 231.781 27.125 232.219 27.125C232.281 27.125 232.422 27.125 232.641 27.125C232.859 27.125 233.016 27.1406 233.109 27.1719C233.391 28.1094 233.562 29.3281 233.625 30.8281C233.719 32.2969 233.781 33.9062 233.812 35.6562C233.875 37.4062 233.922 39.2188 233.953 41.0938C234.016 42.9688 234.125 44.75 234.281 46.4375C234.719 43.9688 235.078 41.9219 235.359 40.2969C235.672 38.6719 235.953 37.375 236.203 36.4062C236.484 35.4062 236.734 34.6719 236.953 34.2031C237.203 33.7031 237.469 33.375 237.75 33.2188C238.062 33.0625 238.391 33 238.734 33.0312C239.109 33.0312 239.547 33.0312 240.047 33.0312C240.609 33.0312 241.062 33.25 241.406 33.6875C241.781 34.125 242.062 34.6875 242.25 35.375C242.469 36.0625 242.625 36.8125 242.719 37.625C242.844 38.4375 242.953 39.2344 243.047 40.0156C243.141 40.7656 243.234 41.4531 243.328 42.0781C243.453 42.7031 243.641 43.1406 243.891 43.3906C244.672 41.0781 245.344 39.1875 245.906 37.7188C246.469 36.25 246.953 35.0938 247.359 34.25C247.766 33.375 248.125 32.75 248.438 32.375C248.75 32 249.031 31.7812 249.281 31.7188C249.531 31.625 249.75 31.6094 249.938 31.6719C250.156 31.7344 250.375 31.7656 250.594 31.7656C251.438 31.7656 252.078 32.2031 252.516 33.0781C253.016 34.4844 253.359 35.8281 253.547 37.1094C253.734 38.3594 253.844 39.5781 253.875 40.7656C253.906 41.9219 253.906 43.0312 253.875 44.0938C253.875 45.1562 253.906 46.1875 253.969 47.1875C254.062 48.1875 254.234 49.1719 254.484 50.1406C254.766 51.1094 255.234 52.0625 255.891 53C255.641 53.5 255.391 53.8438 255.141 54.0312C254.891 54.1875 254.547 54.2656 254.109 54.2656C253.734 54.2656 253.406 54.1406 253.125 53.8906C252.844 53.6094 252.609 53.2812 252.422 52.9062C252.234 52.5 252.078 52.0938 251.953 51.6875C251.859 51.2812 251.766 50.9219 251.672 50.6094C251.547 46.1406 251.344 42.7188 251.062 40.3438C250.812 37.9375 250.422 36.6719 249.891 36.5469C249.359 36.4219 248.672 37.4688 247.828 39.6875C247.016 41.875 246 45.3125 244.781 50C244.688 50.1562 244.547 50.25 244.359 50.2812C244.172 50.3125 243.969 50.3281 243.75 50.3281C243.562 50.3281 243.359 50.3281 243.141 50.3281C242.953 50.2969 242.766 50.2969 242.578 50.3281C241.797 45.7344 241.141 42.4375 240.609 40.4375C240.109 38.4062 239.594 37.625 239.062 38.0938C238.531 38.5625 237.938 40.25 237.281 43.1562C236.625 46.0312 235.781 50.0781 234.75 55.2969L232.406 55.8594ZM259.688 45.875C259.531 45.9062 259.297 45.9531 258.984 46.0156C258.672 46.0781 258.344 46.0938 258 46.0625C257.656 46.0312 257.359 45.9375 257.109 45.7812C256.828 45.625 256.688 45.3594 256.688 44.9844C256.688 44.7656 256.734 44.6094 256.828 44.5156C256.922 44.4219 257.078 44.2812 257.297 44.0938C257.984 43.5312 258.562 42.8125 259.031 41.9375C259.531 41.0312 259.984 40.0781 260.391 39.0781C260.797 38.0469 261.219 37.0312 261.656 36.0312C262.125 35 262.656 34.0781 263.25 33.2656C263.844 32.4531 264.578 31.7969 265.453 31.2969C266.328 30.7969 267.406 30.5625 268.688 30.5938C269.219 30.5938 269.812 30.7188 270.469 30.9688C271.125 31.2188 271.734 31.5625 272.297 32C272.859 32.4062 273.328 32.9062 273.703 33.5C274.078 34.0938 274.266 34.75 274.266 35.4688C274.422 35.7188 274.266 36.0781 273.797 36.5469C273.359 37.0156 272.75 37.5312 271.969 38.0938C271.188 38.625 270.297 39.1875 269.297 39.7812C268.328 40.3438 267.391 40.875 266.484 41.375C265.578 41.875 264.781 42.3125 264.094 42.6875C263.406 43.0625 262.953 43.3438 262.734 43.5312C262.578 43.8438 262.453 44.2031 262.359 44.6094C262.266 45.0156 262.188 45.4062 262.125 45.7812C262.094 46.125 262.062 46.4531 262.031 46.7656C262.031 47.0469 262.031 47.2656 262.031 47.4219C262.031 48.0156 262 48.6719 261.938 49.3906C261.906 50.1094 261.938 50.7969 262.031 51.4531C262.156 52.0781 262.422 52.6094 262.828 53.0469C263.234 53.4531 263.922 53.6562 264.891 53.6562C265.922 53.6562 266.891 53.4062 267.797 52.9062C268.703 52.375 269.547 51.7344 270.328 50.9844C271.109 50.2344 271.812 49.4219 272.438 48.5469C273.094 47.6719 273.672 46.8594 274.172 46.1094C274.703 45.3281 275.172 44.6875 275.578 44.1875C275.984 43.6875 276.328 43.4375 276.609 43.4375C276.922 43.4375 277.25 43.5 277.594 43.625C277.969 43.7188 278.156 43.9688 278.156 44.375C278.156 44.9375 277.922 45.6094 277.453 46.3906C277.016 47.1719 276.422 48 275.672 48.875C274.953 49.75 274.109 50.625 273.141 51.5C272.203 52.3438 271.25 53.1094 270.281 53.7969C269.312 54.4531 268.359 55 267.422 55.4375C266.484 55.8438 265.656 56.0469 264.938 56.0469C263.531 56.0469 262.469 55.7031 261.75 55.0156C261.031 54.3281 260.516 53.4688 260.203 52.4375C259.922 51.4062 259.766 50.3125 259.734 49.1562C259.734 47.9688 259.719 46.875 259.688 45.875ZM268.312 33.2188C267.781 33.2188 267.219 33.4844 266.625 34.0156C266.031 34.5156 265.469 35.1406 264.938 35.8906C264.438 36.6094 264.016 37.3594 263.672 38.1406C263.359 38.8906 263.203 39.5156 263.203 40.0156C263.672 40.0156 264.344 39.8438 265.219 39.5C266.125 39.125 267.016 38.6719 267.891 38.1406C268.766 37.6094 269.531 37.0469 270.188 36.4531C270.844 35.8594 271.172 35.2969 271.172 34.7656C271.172 34.4844 271.062 34.25 270.844 34.0625C270.625 33.875 270.359 33.7188 270.047 33.5938C269.766 33.4688 269.469 33.375 269.156 33.3125C268.844 33.25 268.562 33.2188 268.312 33.2188Z" fill="#FFF500"/>
<path d="M284.935 57.0645C284.142 56.8242 283.305 57.2722 283.064 58.065C282.824 58.8578 283.272 59.6953 284.065 59.9355L284.935 57.0645ZM293.504 61.2286L293.069 62.6641L293.069 62.6641L293.504 61.2286ZM306.429 69.1459L305.347 70.1856L305.347 70.1856L306.429 69.1459ZM306.931 69.6682L308.012 68.6286L308.012 68.6286L306.931 69.6682ZM314.952 85.8659L313.47 86.0957L313.47 86.0957L314.952 85.8659ZM315.275 94.8755C315.944 95.3646 316.882 95.2191 317.371 94.5505L325.342 83.6549C325.832 82.9863 325.686 82.0477 325.017 81.5586C324.349 81.0695 323.41 81.215 322.921 81.8836L315.836 91.5686L306.151 84.4833C305.482 83.9941 304.544 84.1396 304.055 84.8082C303.565 85.4768 303.711 86.4154 304.38 86.9045L315.275 94.8755ZM284.065 59.9355L293.069 62.6641L293.939 59.7931L284.935 57.0645L284.065 59.9355ZM305.347 70.1856L305.85 70.7079L308.012 68.6286L307.51 68.1063L305.347 70.1856ZM313.47 86.0957L314.679 93.8946L317.643 93.4351L316.434 85.6361L313.47 86.0957ZM305.85 70.7079C309.911 74.9318 312.572 80.3051 313.47 86.0957L316.434 85.6361C315.442 79.2359 312.501 73.2971 308.012 68.6286L305.85 70.7079ZM293.069 62.6641C297.738 64.0791 301.966 66.6689 305.347 70.1856L307.51 68.1063C303.772 64.2193 299.1 61.3569 293.939 59.7931L293.069 62.6641Z" fill="#FFF500"/>
</svg>
